<svg xmlns="http://www.w3.org/2000/svg" viewBox="0 0 117.85 118.73"><defs><style>.cls-1{fill:#d50d2e;}</style></defs><g id="Layer_2" data-name="Layer 2"><g id="Layer_1-2" data-name="Layer 1"><path class="cls-1" d="M11.3,0H3.78A1.49,1.49,0,0,0,2.29,1.49V9a1.49,1.49,0,0,0,1.49,1.48H11.3A1.48,1.48,0,0,0,12.78,9V1.49A1.49,1.49,0,0,0,11.3,0Z"/><path class="cls-1" d="M51.51,0H44a1.49,1.49,0,0,0-1.48,1.49V9A1.48,1.48,0,0,0,44,10.49h7.52A1.49,1.49,0,0,0,53,9V1.49A1.49,1.49,0,0,0,51.51,0Z"/><path class="cls-1" d="M11.3,40.22H3.78A1.49,1.49,0,0,0,2.29,41.7v7.52a1.49,1.49,0,0,0,1.49,1.49H11.3a1.49,1.49,0,0,0,1.48-1.49V41.7A1.48,1.48,0,0,0,11.3,40.22Z"/><path class="cls-1" d="M51.51,40.22H44a1.48,1.48,0,0,0-1.48,1.48v7.52A1.49,1.49,0,0,0,44,50.71h7.52A1.49,1.49,0,0,0,53,49.22V41.7A1.49,1.49,0,0,0,51.51,40.22Z"/><path class="cls-1" d="M46.27,13.48h3V37.26h-3Z"/><path class="cls-1" d="M15.75,3.76H39.54v3H15.75Z"/><path class="cls-1" d="M6.05,13.48H9V37.26h-3Z"/><path class="cls-1" d="M15.75,44H39.54v3H15.75Z"/><path class="cls-1" d="M38.29,13.58H17a1.49,1.49,0,0,0-1.49,1.49v5.4a1.49,1.49,0,1,0,3,0V16.56h7.68V34.35H23.39a1.49,1.49,0,0,0,0,3H31.9a1.49,1.49,0,0,0,0-3H29.13V16.56h7.68v3.91a1.49,1.49,0,1,0,3,0v-5.4a1.49,1.49,0,0,0-1.49-1.49Z"/><path class="cls-1" d="M77.89,31.38a13.39,13.39,0,0,0,0,5.35c1.82,8.46,7.44,12.78,15.3,12.78,8.11,0,12-4.39,13.78-8.08a12.74,12.74,0,0,0,.76-9.12l1.55-1.46c4.43-4.23,8.52-9.1,8.52-16,0-8-5.08-14.58-13.07-14.58A13,13,0,0,0,93.24,7.39,13,13,0,0,0,81.71.3c-8,0-13.07,6.57-13.07,14.58,0,6.58,3.52,11.25,9.25,16.5Zm11,11.35a2.37,2.37,0,0,1,1-2.22,5.35,5.35,0,0,0,2.47-3.46,5.44,5.44,0,0,0,.1-1.84,6.88,6.88,0,0,1,5.11,6.67A4.75,4.75,0,0,1,93,46.63a3.91,3.91,0,0,1-4.07-3.9Zm15.51-2.57a11,11,0,0,1-4.73,5,7.7,7.7,0,0,0,.75-3.32,9.73,9.73,0,0,0-9.67-9.76H87.67l1.49,2.24a2.68,2.68,0,0,1,.39,2.06,2.56,2.56,0,0,1-1.16,1.63A5.08,5.08,0,0,0,86,42.73,6.77,6.77,0,0,0,86.42,45q-4.29-2.53-5.66-8.86A10.57,10.57,0,0,1,82.32,28l1.09-1.65a4.33,4.33,0,0,0,8.39-1.48A7.22,7.22,0,0,1,99,17.7a6.81,6.81,0,0,0-.85,3.35c0,2.28,1.22,4.51,3.65,6.82A10.61,10.61,0,0,1,104.43,40.16Zm-22.72-37A10.15,10.15,0,0,1,91.8,13.37h2.89A10.15,10.15,0,0,1,104.78,3.18c7,0,10.19,6.07,10.19,11.7,0,5.47-3,9.5-7.63,13.89l-.73.69a14.92,14.92,0,0,0-2.82-3.68C102,24,101.05,22.47,101,21a5.26,5.26,0,0,1,1.88-3.73l2.47-2.47H99a10.11,10.11,0,0,0-10.09,10.1,1.44,1.44,0,0,1-2.88,0V17.26l-6.12,9.18a12.62,12.62,0,0,0-1.06,1.9c-4.67-4.43-7.34-8.25-7.34-13.46,0-5.63,3.19-11.7,10.19-11.7Z"/><path class="cls-1" d="M114.09,81.18l2.39-2.4a1.45,1.45,0,0,0,.34-1.52,1.47,1.47,0,0,0-1.24-.94l-4.44-.38-.38-4.44a1.45,1.45,0,0,0-2.46-.9L105.91,73a24.66,24.66,0,1,0,8.18,8.18Zm-5.73-3.78a1.44,1.44,0,0,0,1.32,1.32l2.55.22-3.45,3.46L105,82.08l-.31-3.77,3.45-3.46ZM98,94.05A4.92,4.92,0,1,1,93,89.14a4.84,4.84,0,0,1,2.3.57L92,93a1.45,1.45,0,0,0,2,2l3.33-3.33A5,5,0,0,1,98,94.05Zm-.52-6.44a7.77,7.77,0,1,0,2,2l4.13-4.13a13.69,13.69,0,1,1-2-2Zm11,21.85a21.78,21.78,0,1,1-4.64-34.35l-1.63,1.63a1.41,1.41,0,0,0-.43,1,.81.81,0,0,0,0,.16l.19,2.31a16.52,16.52,0,1,0,5,5l2.31.2h.35l.09,0h.06l.09,0,0,0,.09,0,0,0,.08,0,0,0,.08-.06,0,0,.12-.1L112,83.29a21.8,21.8,0,0,1-3.54,26.17Z"/><path class="cls-1" d="M51.64,101.62V90.52A1.6,1.6,0,0,0,50.52,89l-24.2-7.81a1.67,1.67,0,0,0-1,0L1.12,89A1.6,1.6,0,0,0,0,90.52a1.62,1.62,0,0,0,1.12,1.54L13.24,96v6.13c0,1.57,1.53,3.06,4.19,4.2a21.82,21.82,0,0,0,8.39,1.62,21.74,21.74,0,0,0,8.39-1.62c2.71-1.16,4.19-2.68,4.19-4.27V96l10-3.22v8.88a4.18,4.18,0,0,0-2.57,3.85v5.47a1.61,1.61,0,0,0,1.61,1.61h5.13a1.61,1.61,0,0,0,1.62-1.61v-5.47A4.18,4.18,0,0,0,51.64,101.62Zm-19.2,1.91a19.6,19.6,0,0,1-13.23,0,6.45,6.45,0,0,1-2.75-1.65V97l8.87,2.86a1.62,1.62,0,0,0,.49.08,1.69,1.69,0,0,0,.5-.08L35.18,97v4.88A6.46,6.46,0,0,1,32.44,103.53Zm-6.62-6.9L6.87,90.52l19-6.11,19,6.11ZM51,109.33h-1.9v-3.86a.95.95,0,1,1,1.9,0Z"/></g></g></svg>