<svg xmlns="http://www.w3.org/2000/svg" viewBox="0 0 54.21 31.45"><defs><style>.cls-1{fill:#d50d2e;}</style></defs><g id="Layer_2" data-name="Layer 2"><g id="Layer_1-2" data-name="Layer 1"><path class="cls-1" d="M51.64,20.52V9.42a1.62,1.62,0,0,0-1.12-1.54L26.32.08a1.53,1.53,0,0,0-1,0L1.12,7.88A1.62,1.62,0,0,0,0,9.42,1.6,1.6,0,0,0,1.12,11l12.12,3.91V21c0,1.57,1.53,3.06,4.19,4.2a21.82,21.82,0,0,0,8.39,1.61,21.74,21.74,0,0,0,8.39-1.61c2.71-1.16,4.19-2.68,4.19-4.28V14.86l10-3.23v8.89a4.18,4.18,0,0,0-2.57,3.85v5.47a1.61,1.61,0,0,0,1.61,1.61h5.13a1.61,1.61,0,0,0,1.62-1.61V24.37A4.18,4.18,0,0,0,51.64,20.52Zm-19.2,1.91a19.13,19.13,0,0,1-6.62,1.15,19,19,0,0,1-6.61-1.15,6.56,6.56,0,0,1-2.75-1.65V15.9l8.87,2.86a1.61,1.61,0,0,0,.49.07,1.68,1.68,0,0,0,.5-.07l8.86-2.86v4.88A6.46,6.46,0,0,1,32.44,22.43Zm-6.62-6.9L6.87,9.42l19-6.11,19,6.11ZM51,28.22h-1.9V24.37a.95.95,0,1,1,1.9,0Z"/></g></g></svg>