<svg xmlns="http://www.w3.org/2000/svg" viewBox="0 0 49.36 49.36"><defs><style>.cls-1{fill:#d50d2e;}</style></defs><g id="Layer_2" data-name="Layer 2"><g id="Layer_1-2" data-name="Layer 1"><path class="cls-1" d="M45.74,11.8l2.39-2.39A1.44,1.44,0,0,0,47.23,7l-4.44-.38-.38-4.44A1.44,1.44,0,0,0,40,1.23L37.56,3.62A24.68,24.68,0,0,0,7.23,42.13,24.68,24.68,0,0,0,45.74,11.8ZM40,8a1.45,1.45,0,0,0,1.32,1.32l2.55.22L40.43,13l-3.78-.32-.31-3.77,3.45-3.46ZM29.6,24.68a4.92,4.92,0,1,1-4.92-4.92,4.84,4.84,0,0,1,2.3.58l-3.32,3.32a1.43,1.43,0,0,0,0,2,1.42,1.42,0,0,0,2,0L29,22.38A5,5,0,0,1,29.6,24.68Zm-.52-6.45a7.82,7.82,0,1,0,2.05,2.05l4.13-4.13a13.69,13.69,0,1,1-2-2Zm11,21.86A21.79,21.79,0,1,1,35.45,5.73L33.82,7.37a1.41,1.41,0,0,0-.43,1,.86.86,0,0,0,0,.16l.19,2.31a16.52,16.52,0,1,0,4.95,4.95l2.31.19h.35l.09,0h.06l.09,0,.05,0,.09,0,.05,0,.08-.05,0,0,.08-.06,0,0,.12-.1,1.63-1.64a21.82,21.82,0,0,1-3.54,26.18Z"/></g></g></svg>