<svg xmlns="http://www.w3.org/2000/svg" viewBox="0 0 49.21 49.21"><defs><style>.cls-1{fill:#d50d2e;}</style></defs><g id="Layer_2" data-name="Layer 2"><g id="Layer_1-2" data-name="Layer 1"><path class="cls-1" d="M9.25,31.08a13.39,13.39,0,0,0,.05,5.35c1.83,8.46,7.44,12.78,15.31,12.78,8.1,0,12-4.39,13.77-8.08A12.69,12.69,0,0,0,39.14,32c.55-.5,1.06-1,1.56-1.46,4.42-4.23,8.51-9.1,8.51-16C49.21,6.57,44.14,0,36.14,0A13,13,0,0,0,24.61,7.09,13,13,0,0,0,13.07,0C5.08,0,0,6.57,0,14.58c0,6.58,3.52,11.25,9.25,16.5Zm11,11.35a2.37,2.37,0,0,1,1-2.22,5.4,5.4,0,0,0,2.48-3.46,5.7,5.7,0,0,0,.09-1.84,6.87,6.87,0,0,1,5.11,6.67,4.75,4.75,0,0,1-4.58,4.75,3.92,3.92,0,0,1-4.07-3.9Zm15.51-2.57a11,11,0,0,1-4.73,5,7.7,7.7,0,0,0,.76-3.32,9.73,9.73,0,0,0-9.68-9.76H19l1.49,2.24a2.64,2.64,0,0,1,.39,2.06,2.52,2.52,0,0,1-1.15,1.63,5.06,5.06,0,0,0-2.36,4.68,6.77,6.77,0,0,0,.38,2.25C14.93,43,13,40,12.12,35.82a10.57,10.57,0,0,1,1.56-8.08l1.1-1.65a4.33,4.33,0,0,0,8.39-1.48,7.21,7.21,0,0,1,7.19-7.21,6.81,6.81,0,0,0-.85,3.35c0,2.28,1.22,4.51,3.65,6.82A10.6,10.6,0,0,1,35.79,39.86Zm-22.72-37a10.16,10.16,0,0,1,10.1,10.19h2.88A10.15,10.15,0,0,1,36.14,2.88c7,0,10.19,6.07,10.19,11.7,0,5.47-3,9.5-7.63,13.89l-.73.69a14.92,14.92,0,0,0-2.82-3.68c-1.84-1.75-2.74-3.31-2.76-4.77A5.28,5.28,0,0,1,34.28,17l2.46-2.47H30.37a10.11,10.11,0,0,0-10.09,10.1,1.44,1.44,0,0,1-2.88,0V17l-6.12,9.18A13.56,13.56,0,0,0,10.22,28c-4.67-4.43-7.34-8.26-7.34-13.46C2.88,9,6.07,2.88,13.07,2.88Z"/></g></g></svg>