<svg xmlns="http://www.w3.org/2000/svg" viewBox="0 0 50.71 50.71"><defs><style>.cls-1{fill:#d50d2e;}</style></defs><g id="Layer_2" data-name="Layer 2"><g id="Layer_1-2" data-name="Layer 1"><path class="cls-1" d="M9,0H1.49A1.49,1.49,0,0,0,0,1.49V9a1.49,1.49,0,0,0,1.49,1.48H9A1.48,1.48,0,0,0,10.49,9V1.49A1.49,1.49,0,0,0,9,0Z"/><path class="cls-1" d="M49.22,0H41.7a1.49,1.49,0,0,0-1.48,1.49V9a1.48,1.48,0,0,0,1.48,1.48h7.52A1.49,1.49,0,0,0,50.71,9V1.49A1.49,1.49,0,0,0,49.22,0Z"/><path class="cls-1" d="M9,40.22H1.49A1.49,1.49,0,0,0,0,41.7v7.52a1.49,1.49,0,0,0,1.49,1.49H9a1.49,1.49,0,0,0,1.48-1.49V41.7A1.48,1.48,0,0,0,9,40.22Z"/><path class="cls-1" d="M49.22,40.22H41.7a1.48,1.48,0,0,0-1.48,1.48v7.52a1.49,1.49,0,0,0,1.48,1.49h7.52a1.49,1.49,0,0,0,1.49-1.49V41.7A1.49,1.49,0,0,0,49.22,40.22Z"/><path class="cls-1" d="M44,13.48h3V37.26H44Z"/><path class="cls-1" d="M13.46,3.76H37.25v3H13.46Z"/><path class="cls-1" d="M3.76,13.48h3V37.26h-3Z"/><path class="cls-1" d="M13.46,44H37.25v3H13.46Z"/><path class="cls-1" d="M36,13.58H14.71a1.49,1.49,0,0,0-1.49,1.49v5.4a1.49,1.49,0,1,0,3,0V16.56h7.68V34.35H21.1a1.49,1.49,0,1,0,0,3h8.51a1.49,1.49,0,0,0,0-3H26.84V16.56h7.67v3.91a1.49,1.49,0,0,0,3,0v-5.4A1.49,1.49,0,0,0,36,13.58Z"/></g></g></svg>